<?xml version="1.0" encoding="iso-8859-1"?>
<!-- Generator: Adobe Illustrator 16.0.0, SVG Export Plug-In . SVG Version: 6.00 Build 0)  -->
<!DOCTYPE svg PUBLIC "-//W3C//DTD SVG 1.1//EN" "http://www.w3.org/Graphics/SVG/1.1/DTD/svg11.dtd">
<svg version="1.1" id="Capa_1" xmlns="http://www.w3.org/2000/svg" xmlns:xlink="http://www.w3.org/1999/xlink" x="0px" y="0px"
	 width="674.01px" height="674.01px" viewBox="0 0 674.01 674.01" style="enable-background:new 0 0 674.01 674.01;"
	 xml:space="preserve">
<g>
	<g>
		<path d="M226.677,357.751v83.477v28.181v3.389h220.656v-3.057v-28.513v-83.145l-110.328-91.386L226.677,357.751z M334.344,428.933
			h-40.875v-38.217h40.875V428.933z M334.344,385.731h-40.875v-38.217h40.875V385.731z M339.66,347.515h40.874v38.217H339.66
			V347.515z M339.66,390.716h40.874v38.217H339.66V390.716z"/>
		<polygon points="580.5,446.143 508.5,446.143 508.5,503.744 165.6,503.744 165.6,446.143 93.6,446.143 0,574.663 674.01,574.663 
					"/>
		<polygon points="165.51,292.843 165.51,389.965 187.605,389.965 196.093,389.965 196.677,389.965 196.677,343.612 
			337.039,227.771 477.333,343.978 477.333,390.632 477.917,390.632 488.295,390.632 508.5,390.632 508.5,292.884 542.745,321.016 
			568.485,289.786 337.005,99.347 229.095,188.176 229.095,147.406 188.595,147.406 188.595,221.476 105.525,289.786 
			131.265,321.016 		"/>
	</g>
</g>
<g>
</g>
<g>
</g>
<g>
</g>
<g>
</g>
<g>
</g>
<g>
</g>
<g>
</g>
<g>
</g>
<g>
</g>
<g>
</g>
<g>
</g>
<g>
</g>
<g>
</g>
<g>
</g>
<g>
</g>
</svg>
